<svg width="16" height="16" viewBox="0 0 16 16" fill="none" xmlns="http://www.w3.org/2000/svg">
<g clip-path="url(#clip0)">
<rect width="16" height="16" fill="white"/>
<path d="M16 0L16 8L16 16L8 16L4.11542e-06 16L16 0Z" fill="#4C39A9"/>
<path d="M3.05176e-05 16V8V-2.38419e-07H8.00003H16L3.05176e-05 16Z" fill="#684CDC"/>
<path d="M6.83201 3.70645C7.07201 3.80245 7.44001 4.02645 7.64801 4.20245L8.00001 4.53845L8.36801 4.20245C9.44001 3.19445 11.648 3.32245 12.848 4.45845C13.888 5.43445 13.984 5.86645 14.048 9.32245L14.112 12.4904H12.816H11.52V9.53045C11.52 6.77845 11.504 6.55445 11.2 6.25045C10.784 5.83445 10.112 5.85045 9.64801 6.28245C9.29601 6.61845 9.28001 6.69845 9.28001 9.56245V12.4904H8.00001H6.72001V9.57845C6.72001 6.81045 6.70401 6.65045 6.36801 6.29845C5.93601 5.83445 5.32801 5.83445 4.84801 6.28245C4.49601 6.61845 4.48001 6.69845 4.48001 9.56245V12.4904H3.20001H1.92001V9.64245C1.92001 6.26645 2.08001 5.49845 2.99201 4.61845C3.32801 4.29845 3.85601 3.91445 4.16001 3.78645C4.81601 3.49845 6.19201 3.45045 6.83201 3.70645Z" fill="white"/>
</g>
<defs>
<clipPath id="clip0">
<rect width="16" height="16" fill="white"/>
</clipPath>
</defs>
</svg>
