<svg width="32" height="32" viewBox="0 0 32 32" fill="none" xmlns="http://www.w3.org/2000/svg">
<g clip-path="url(#clip0)">
<rect width="32" height="32" fill="white"/>
<path d="M32 0L32 16L32 32L16 32L7.78323e-06 32L32 0Z" fill="#4C39A9"/>
<path d="M3.05176e-05 32V16V-4.76837e-07H16H32L3.05176e-05 32Z" fill="#684CDC"/>
<path d="M13.664 7.41287C14.144 7.60487 14.88 8.05287 15.296 8.40487L16 9.07687L16.736 8.40487C18.88 6.38887 23.296 6.64487 25.696 8.91687C27.776 10.8689 27.968 11.7329 28.096 18.6449L28.224 24.9809H25.632H23.04V19.0609C23.04 13.5569 23.008 13.1089 22.4 12.5009C21.568 11.6689 20.224 11.7009 19.296 12.5649C18.592 13.2369 18.56 13.3969 18.56 19.1249V24.9809H16H13.44V19.1569C13.44 13.6209 13.408 13.3009 12.736 12.5969C11.872 11.6689 10.656 11.6689 9.696 12.5649C8.992 13.2369 8.96 13.3969 8.96 19.1249V24.9809H6.4H3.84V19.2849C3.84 12.5329 4.16 10.9969 5.984 9.23687C6.656 8.59687 7.712 7.82887 8.32 7.57287C9.632 6.99687 12.384 6.90087 13.664 7.41287Z" fill="white"/>
</g>
<defs>
<clipPath id="clip0">
<rect width="32" height="32" fill="white"/>
</clipPath>
</defs>
</svg>
